<?xml version="1.0" standalone="no"?>
<!DOCTYPE svg PUBLIC "-//W3C//DTD SVG 20010904//EN"
 "http://www.w3.org/TR/2001/REC-SVG-20010904/DTD/svg10.dtd">
<svg version="1.0" xmlns="http://www.w3.org/2000/svg"
 width="700.000000pt" height="700.000000pt" viewBox="0 0 700.000000 700.000000"
 preserveAspectRatio="xMidYMid meet">
<metadata>
Created by potrace 1.14, written by Peter Selinger 2001-2017
</metadata>
<g transform="translate(0.000000,700.000000) scale(0.100000,-0.100000)"
fill="#000000" stroke="none">
<path d="M2015 6993 c-541 -49 -1018 -272 -1387 -649 -174 -178 -298 -352
-403 -569 -102 -208 -165 -412 -202 -645 -17 -107 -18 -217 -18 -1630 0 -1413
1 -1523 18 -1630 37 -233 100 -437 202 -645 210 -434 564 -788 1001 -1001 227
-111 501 -188 758 -213 150 -15 2882 -15 3032 0 1052 102 1871 921 1973 1973
15 150 15 2882 0 3032 -89 922 -737 1683 -1626 1913 -269 69 -169 65 -1818 67
-820 0 -1508 -1 -1530 -3z m3166 -1302 l29 -29 0 -144 c0 -120 -3 -146 -18
-164 -35 -44 -82 -55 -131 -29 -45 23 -53 57 -49 210 3 136 3 137 31 161 41
35 99 33 138 -5z m-398 -135 c50 -22 187 -166 196 -207 17 -76 -25 -129 -100
-129 -28 0 -48 15 -136 103 -96 96 -103 106 -103 143 0 83 65 124 143 90z
m764 -19 c13 -13 26 -40 30 -60 6 -36 3 -40 -103 -147 -100 -103 -110 -110
-147 -110 -56 0 -97 43 -97 101 0 39 5 47 93 136 50 52 101 99 112 104 31 14
87 2 112 -24z m139 -356 c59 -36 68 -108 19 -157 -23 -23 -29 -24 -173 -24
-148 0 -150 0 -176 26 -19 20 -26 37 -26 66 0 89 33 107 200 108 105 0 130 -3
156 -19z m-651 -161 l70 -70 -223 -223 c-122 -122 -222 -227 -222 -233 0 -6
54 -62 121 -124 138 -130 163 -168 163 -255 0 -79 -16 -107 -124 -219 l-87
-91 18 -40 c10 -22 37 -95 59 -163 194 -589 59 -1238 -359 -1727 -185 -217
-471 -415 -741 -513 -200 -73 -349 -102 -566 -109 -238 -8 -438 20 -653 93
-526 178 -951 602 -1130 1130 -275 809 42 1689 771 2140 283 175 599 264 938
264 239 0 444 -38 652 -120 l101 -40 91 88 c50 49 105 97 123 106 41 21 134
21 176 0 18 -9 91 -74 162 -145 l130 -129 225 225 c124 124 227 225 230 225 3
0 37 -32 75 -70z m427 -137 c49 -49 97 -101 105 -117 42 -82 -52 -175 -133
-133 -16 8 -68 56 -116 105 -78 79 -88 94 -88 125 0 73 31 105 104 106 35 1
46 -6 128 -86z"/>
<path d="M2662 4179 c-392 -65 -701 -421 -702 -806 0 -78 2 -84 31 -118 43
-48 97 -62 155 -40 62 24 84 60 96 158 17 155 69 270 162 362 101 101 199 147
350 164 100 12 136 28 165 74 29 47 27 103 -3 148 -44 65 -115 81 -254 58z"/>
</g>
</svg>
